<svg width="31" height="31" viewBox="0 0 31 31" fill="none" xmlns="http://www.w3.org/2000/svg">
<path d="M12.0147 3.97391L12.0143 3.97425L1.13237 14.8239C1.13227 14.824 1.13214 14.8241 1.13203 14.8243C1.0322 14.9242 0.969729 15.024 0.934586 15.1232L0.934031 15.1247C0.893332 15.2378 0.871745 15.362 0.871745 15.4997C0.871745 15.6375 0.893332 15.7617 0.934035 15.8747L0.934582 15.8763C0.969767 15.9756 1.03236 16.0756 1.13237 16.1756L12.0147 27.0579C12.2515 27.2947 12.5443 27.4154 12.9165 27.4154C13.282 27.4154 13.5876 27.2886 13.8507 27.0256C14.1171 26.7591 14.2405 26.463 14.2405 26.1237C14.2405 25.7844 14.1171 25.4883 13.8507 25.2218L4.35695 15.7281L4.12861 15.4997L4.35695 15.2714L13.8507 5.77765C14.0892 5.53911 14.2082 5.25111 14.2082 4.89257C14.2082 4.53965 14.0831 4.23855 13.8184 3.97391C13.552 3.70747 13.2559 3.58411 12.9165 3.58411C12.5772 3.58411 12.2811 3.70747 12.0147 3.97391Z" fill="#232221" stroke="white" stroke-width="0.645833"/>
</svg>
