<svg width="14" height="14" viewBox="0 0 14 14" fill="none" xmlns="http://www.w3.org/2000/svg">
  <path d="M12.2049 5.42617L12.2048 5.42601L7.30502 0.51158C7.30501 0.511559 7.30503 0.511555 7.30501 0.511444C7.25976 0.466327 7.21463 0.438031 7.16979 0.422279L7.16909 0.421582C7.11804 0.403193 7.06195 0.393463 7.00074 0.393463C6.93853 0.393463 6.88244 0.403193 6.83139 0.421582L6.83069 0.422279C6.78584 0.438031 6.7407 0.466327 6.69553 0.511444L1.78091 5.42617C1.67405 5.53314 1.61951 5.66537 1.61951 5.83346C1.61951 5.99851 1.6767 6.13655 1.79548 6.25534C1.91592 6.37567 2.04964 6.43138 2.20284 6.43138C2.35614 6.43138 2.4898 6.37567 2.6101 6.25534L6.89762 1.9678L7.00074 1.8647L7.10386 1.9678L11.3914 6.25534C11.4991 6.36307 11.6291 6.4168 11.791 6.4168C11.9504 6.4168 12.0864 6.36028 12.2067 6.23995C12.327 6.11962 12.3827 5.98589 12.3827 5.83265C12.3827 5.67941 12.327 5.54568 12.2067 5.42535L12.2049 5.42617Z" fill="#232221" stroke="white" stroke-width="0.291667"/>
</svg>
