<svg width="32" height="32" viewBox="0 0 32 32" fill="none" xmlns="http://www.w3.org/2000/svg">
<path d="M14.6145 10.858L14.6143 10.8582L9.5304 15.927C9.53037 15.927 9.53033 15.9271 9.5303 15.9271C9.48375 15.9737 9.45466 16.0202 9.43831 16.0663L9.43805 16.0671C9.41909 16.1197 9.40903 16.1776 9.40903 16.2418C9.40903 16.306 9.41909 16.3639 9.43805 16.4165L9.43831 16.4173C9.45467 16.4635 9.48379 16.51 9.5304 16.5566L14.6145 21.6407C14.7248 21.751 14.8613 21.8073 15.0349 21.8073C15.2052 21.8073 15.3477 21.7482 15.4703 21.6256C15.5946 21.5013 15.6521 21.3633 15.6521 21.2052C15.6521 21.047 15.5946 20.909 15.4703 20.7848L11.035 16.3494L10.9274 16.2418L11.035 16.1342L15.4703 11.6988C15.5815 11.5877 15.637 11.4534 15.637 11.2863C15.637 11.1218 15.5787 10.9814 15.4553 10.858C15.331 10.7338 15.193 10.6763 15.0349 10.6763C14.8767 10.6763 14.7387 10.7338 14.6145 10.858Z" fill="#232221" stroke="white" stroke-width="0.30438"/>
</svg>
