<svg width="15" height="15" viewBox="0 0 15 15" fill="none" xmlns="http://www.w3.org/2000/svg">
<path d="M5.8578 1.96718L5.85757 1.96741L0.59218 7.21718C0.592177 7.21718 0.592174 7.21719 0.592171 7.21719C0.549421 7.25994 0.524692 7.30057 0.511195 7.33868L0.510819 7.33972C0.493749 7.38714 0.484375 7.44002 0.484375 7.5C0.484375 7.55998 0.493749 7.61286 0.510822 7.66028L0.511192 7.66132C0.524694 7.69943 0.549426 7.74007 0.59218 7.78282L5.8578 13.0484C5.95993 13.1506 6.08536 13.2031 6.25 13.2031C6.41008 13.2031 6.54213 13.1485 6.65782 13.0328C6.77581 12.9148 6.82812 12.7871 6.82812 12.6406C6.82812 12.4941 6.77581 12.3664 6.65782 12.2484L2.06407 7.65468L1.90939 7.5L2.06407 7.34532L6.65782 2.75157C6.76108 2.64831 6.8125 2.52505 6.8125 2.3675C6.8125 2.21392 6.75897 2.08395 6.6422 1.96718C6.52421 1.84919 6.39652 1.79688 6.25 1.79688C6.10348 1.79688 5.97579 1.84919 5.8578 1.96718Z" fill="#232221" stroke="white" stroke-width="0.4375"/>
</svg>
