<svg width="15" height="15" viewBox="0 0 15 15" fill="none" xmlns="http://www.w3.org/2000/svg">
<path d="M9.1422 13.0328L9.14243 13.0326L14.4078 7.78282C14.4078 7.78282 14.4078 7.78281 14.4078 7.78281C14.4506 7.74006 14.4753 7.69943 14.4888 7.66132L14.4892 7.66028C14.5063 7.61286 14.5156 7.55998 14.5156 7.5C14.5156 7.44002 14.5063 7.38714 14.4892 7.33972L14.4888 7.33868C14.4753 7.30057 14.4506 7.25993 14.4078 7.21718L9.1422 1.95155C9.04007 1.84943 8.91464 1.79688 8.75 1.79688C8.58992 1.79688 8.45787 1.85148 8.34218 1.96718C8.22419 2.08517 8.17188 2.21285 8.17188 2.35938C8.17188 2.5059 8.22419 2.63358 8.34218 2.75157L12.9359 7.34532L13.0906 7.5L12.9359 7.65468L8.34218 12.2484C8.23892 12.3517 8.1875 12.475 8.1875 12.6325C8.1875 12.7861 8.24103 12.916 8.3578 13.0328C8.47579 13.1508 8.60348 13.2031 8.75 13.2031C8.89652 13.2031 9.02421 13.1508 9.1422 13.0328Z" fill="#232221" stroke="white" stroke-width="0.4375"/>
</svg>
