<svg width="31" height="31" viewBox="0 0 31 31" fill="none" xmlns="http://www.w3.org/2000/svg">
<path d="M18.9853 27.0261L18.9857 27.0258L29.8676 16.1761C29.8677 16.176 29.8679 16.1759 29.868 16.1757C29.9678 16.0758 30.0303 15.976 30.0654 15.8768L30.066 15.8753C30.1067 15.7622 30.1283 15.638 30.1283 15.5003C30.1283 15.3625 30.1067 15.2383 30.066 15.1253L30.0654 15.1237C30.0302 15.0244 29.9676 14.9244 29.8676 14.8244L18.9853 3.94214C18.7485 3.70527 18.4557 3.58464 18.0835 3.58464C17.718 3.58464 17.4124 3.71138 17.1493 3.97443C16.8829 4.24087 16.7595 4.53699 16.7595 4.8763C16.7595 5.21562 16.8829 5.51174 17.1493 5.77817L26.6431 15.2719L26.8714 15.5003L26.6431 15.7286L17.1493 25.2223C16.9108 25.4609 16.7918 25.7489 16.7918 26.1074C16.7918 26.4604 16.9169 26.7614 17.1816 27.0261C17.448 27.2925 17.7441 27.4159 18.0835 27.4159C18.4228 27.4159 18.7189 27.2925 18.9853 27.0261Z" fill="#232221" stroke="white" stroke-width="0.645833"/>
</svg>
