<svg width="5" height="8" viewBox="0 0 5 8" fill="none" xmlns="http://www.w3.org/2000/svg">
<path d="M1.09512 7.6892L1.09528 7.68904L4.60554 4.1892C4.60557 4.18917 4.60559 4.18914 4.60562 4.18912C4.63407 4.16064 4.65054 4.13358 4.65953 4.1082L4.65978 4.1075C4.67116 4.07589 4.67741 4.04064 4.67741 4.00065C4.67741 3.96066 4.67116 3.92541 4.65978 3.8938L4.65978 3.8938L4.65953 3.8931C4.65053 3.8677 4.63404 3.84061 4.60554 3.8121L1.09512 0.301687C1.02704 0.233602 0.943419 0.198568 0.833659 0.198568C0.726942 0.198568 0.638908 0.234974 0.561779 0.312104C0.48312 0.390763 0.448243 0.475885 0.448243 0.573568C0.448243 0.671251 0.48312 0.756372 0.561779 0.835031L3.62428 3.89753L3.7274 4.00065L3.62428 4.10377L0.561779 7.16627C0.492939 7.23511 0.458659 7.31729 0.458659 7.42232C0.458659 7.5247 0.494346 7.61135 0.572196 7.6892C0.650854 7.76786 0.735976 7.80273 0.833659 7.80273C0.931342 7.80273 1.01646 7.76786 1.09512 7.6892Z" fill="#C2C2C2" stroke="white" stroke-width="0.291667"/>
</svg>
