<svg width="30" height="30" viewBox="0 0 30 30" fill="none" xmlns="http://www.w3.org/2000/svg">
<path d="M25.015 9.10362L25.0154 9.10457L27.8277 15.6666C27.8642 15.7524 27.8832 15.8447 27.8833 15.938V22.5C27.8833 22.6845 27.81 22.8615 27.6795 22.992C27.549 23.1225 27.372 23.1958 27.1875 23.1958H25.1813H24.9965L24.948 23.3741C24.7461 24.1173 24.3051 24.7734 23.6933 25.2412C23.0814 25.709 22.3327 25.9624 21.5625 25.9624C20.7923 25.9624 20.0436 25.709 19.4317 25.2412C18.8199 24.7734 18.3789 24.1173 18.177 23.3741L18.1285 23.1958H17.9437H12.0562H11.8715L11.823 23.3741C11.6211 24.1173 11.1801 24.7734 10.5683 25.2412C9.95644 25.709 9.20767 25.9624 8.4375 25.9624C7.66733 25.9624 6.91856 25.709 6.30671 25.2412C5.69486 24.7734 5.25394 24.1173 5.05196 23.3741L5.00351 23.1958H4.81875H2.8125C2.62795 23.1958 2.45097 23.1225 2.32047 22.992C2.18998 22.8615 2.11667 22.6845 2.11667 22.5V6.5625C2.11667 6.37795 2.18998 6.20097 2.32047 6.07047C2.45097 5.93998 2.62795 5.86667 2.8125 5.86667H20.625C20.8095 5.86667 20.9865 5.93998 21.117 6.07047C21.2475 6.20097 21.3208 6.37795 21.3208 6.5625V8.4375V8.67917H21.5625H24.3748C24.5114 8.67928 24.6449 8.71958 24.7588 8.79506C24.8726 8.87054 24.9617 8.97786 25.015 9.10362ZM21.5625 10.0708H21.3208V10.3125V15V15.2417H21.5625H25.7625H26.1288L25.9847 14.9049L23.9784 10.2174L23.9157 10.0708H23.7563H21.5625ZM17.9437 21.8042H18.13L18.1774 21.6241C18.2951 21.1776 18.4998 20.7587 18.7798 20.3914C19.0597 20.0242 19.4094 19.7158 19.8088 19.484L19.9292 19.4142V19.275V7.5V7.25833H19.6875H3.75H3.50833V7.5V21.5625V21.8042H3.75H4.81875H5.00351L5.05196 21.6259C5.25394 20.8827 5.69486 20.2266 6.30671 19.7588C6.91856 19.291 7.66733 19.0376 8.4375 19.0376C9.20767 19.0376 9.95644 19.291 10.5683 19.7588C11.1801 20.2266 11.6211 20.8827 11.823 21.6259L11.8715 21.8042H12.0562H17.9437ZM26.25 21.8042H26.4917V21.5625V16.875V16.6333H26.25H21.5625H21.3208V16.875V18.75V18.9909L21.5617 18.9917C22.3375 18.9942 23.0907 19.2538 23.7032 19.7299C24.3158 20.206 24.7533 20.8717 24.9473 21.6229L24.9941 21.8042H25.1813H26.25ZM7.26154 24.2599C7.60963 24.4925 8.01886 24.6167 8.4375 24.6167C8.99888 24.6167 9.53726 24.3937 9.93421 23.9967C10.3312 23.5998 10.5542 23.0614 10.5542 22.5C10.5542 22.0814 10.43 21.6721 10.1974 21.324C9.96486 20.976 9.63428 20.7047 9.24751 20.5445C8.86074 20.3843 8.43515 20.3423 8.02456 20.424C7.61397 20.5057 7.23681 20.7073 6.94079 21.0033C6.64477 21.2993 6.44318 21.6765 6.3615 22.0871C6.27983 22.4977 6.32175 22.9232 6.48196 23.31C6.64216 23.6968 6.91346 24.0274 7.26154 24.2599ZM20.3865 24.2599C20.7346 24.4925 21.1439 24.6167 21.5625 24.6167C22.1239 24.6167 22.6623 24.3937 23.0592 23.9967C23.4562 23.5998 23.6792 23.0614 23.6792 22.5C23.6792 22.0814 23.555 21.6721 23.3224 21.324C23.0899 20.976 22.7593 20.7047 22.3725 20.5445C21.9857 20.3843 21.5602 20.3423 21.1496 20.424C20.739 20.5057 20.3618 20.7073 20.0658 21.0033C19.7698 21.2993 19.5682 21.6765 19.4865 22.0871C19.4048 22.4977 19.4467 22.9232 19.607 23.31C19.7672 23.6968 20.0385 24.0274 20.3865 24.2599Z" fill="black" stroke="#FDFDFD" stroke-width="0.483333"/>
</svg>
