<svg width="23" height="23" viewBox="0 0 23 23" fill="none" xmlns="http://www.w3.org/2000/svg">
<path d="M11.0531 19.4308C11.3441 19.4294 11.623 19.3144 11.8306 19.1104L11.831 19.11L18.825 12.116C19.7403 11.2075 20.2906 9.99497 20.3719 8.70798C20.4213 8.07375 20.3421 7.43608 20.1392 6.83317C19.9361 6.23012 19.6134 5.67428 19.1904 5.19897L19.1902 5.19879C18.7457 4.70309 18.2048 4.3032 17.6005 4.02357C16.9962 3.74394 16.3413 3.59043 15.6757 3.57242C15.0101 3.55441 14.3478 3.67228 13.7293 3.91882C13.1108 4.16536 12.5491 4.5354 12.0784 5.00633C12.0784 5.00634 12.0784 5.00634 12.0784 5.00634L11.0523 6.0324L10.2078 5.18783C10.2077 5.1878 10.2077 5.18778 10.2077 5.18775C9.29921 4.27257 8.08673 3.72224 6.79978 3.64095C6.16555 3.59156 5.52787 3.67072 4.92497 3.87369C4.32192 4.07672 3.76607 4.39943 3.29077 4.82248L3.29059 4.82264C2.79488 5.26717 2.395 5.80809 2.11537 6.41236C1.83574 7.01663 1.68223 7.67156 1.66422 8.33715C1.64621 9.00274 1.76407 9.66502 2.01062 10.2835C2.25716 10.902 2.62719 11.4638 3.09813 11.9345C3.09813 11.9345 3.09814 11.9345 3.09814 11.9345L10.2731 19.1095C10.2732 19.1096 10.2733 19.1097 10.2734 19.1098C10.3747 19.2135 10.496 19.2955 10.6301 19.3507C10.7642 19.4059 10.9081 19.4331 11.0531 19.4308ZM11.0531 19.4308C11.0529 19.4308 11.0528 19.4308 11.0526 19.4308L11.0523 19.3676L11.0534 19.4308C11.0533 19.4308 11.0532 19.4308 11.0531 19.4308ZM6.47503 4.44926L6.47562 4.44926C7.65767 4.45349 8.79012 4.92483 9.62609 5.76054C9.62609 5.76054 9.6261 5.76054 9.6261 5.76054L10.7652 6.89964C10.7653 6.89976 10.7654 6.89988 10.7656 6.9C10.8028 6.93829 10.8473 6.96873 10.8964 6.98954C10.9458 7.01042 10.9988 7.02118 11.0523 7.02118C11.1059 7.02118 11.1589 7.01042 11.2082 6.98954C11.2574 6.96875 11.3018 6.93832 11.339 6.90007C11.3392 6.89993 11.3393 6.89979 11.3395 6.89964L12.6598 5.58799L12.66 5.58773C13.051 5.19495 13.518 4.88608 14.0324 4.68003C14.5469 4.47399 15.098 4.3751 15.652 4.38943C16.206 4.40376 16.7513 4.531 17.2544 4.76336C17.7576 4.99572 18.208 5.32832 18.5781 5.74079L18.5781 5.74082C20.0041 7.3281 19.863 9.92363 18.2523 11.5343L11.2499 18.5367C11.2498 18.5368 11.2497 18.5369 11.2497 18.5369C11.1969 18.5885 11.1261 18.6174 11.0523 18.6174C10.9786 18.6174 10.9077 18.5885 10.855 18.537C10.8549 18.5369 10.8548 18.5368 10.8548 18.5367L3.67966 11.353L3.67953 11.3529C3.28674 10.9619 2.97787 10.4949 2.77183 9.98042C2.56578 9.46595 2.4669 8.91485 2.48123 8.36084C2.49555 7.80683 2.62279 7.26157 2.85516 6.75844C3.0875 6.25536 3.42005 5.80497 3.83247 5.43486C4.55954 4.78819 5.50207 4.43666 6.47503 4.44926Z" fill="#232221" stroke="#232221" stroke-width="0.126316"/>
</svg>
