<svg width="49" height="49" viewBox="0 0 49 49" fill="none" xmlns="http://www.w3.org/2000/svg">
<g filter="url(#filter0_d_400_4063)">
<rect x="2" y="2" width="45" height="45" rx="6.24161" fill="#FDFDFD"/>
<rect x="2.31208" y="2.31208" width="44.3758" height="44.3758" rx="5.92953" stroke="#C2C2C2" stroke-width="0.624161"/>
</g>
<path d="M14.9729 17.195L14.9733 17.1946L14.9733 17.1946C15.5586 16.6737 16.2431 16.2763 16.9856 16.0263C17.7279 15.7764 18.513 15.6789 19.2938 15.7397C20.8768 15.8398 22.3681 16.5168 23.4855 17.6424C23.4856 17.6425 23.4856 17.6425 23.4856 17.6425L24.4743 18.6312L25.6844 17.4211C26.2638 16.8414 26.9552 16.3859 27.7166 16.0824C28.4779 15.7789 29.2932 15.6339 30.1125 15.656C30.9318 15.6782 31.738 15.8672 32.4818 16.2114C33.2256 16.5556 33.8915 17.0478 34.4387 17.658L34.439 17.6584C34.9599 18.2437 35.3573 18.9281 35.6073 19.6707C35.8572 20.413 35.9547 21.1981 35.8939 21.979C35.7938 23.5619 35.1168 25.0533 33.9911 26.1707L25.4644 34.6974L25.4636 34.6982C25.1999 34.9575 24.8454 35.1035 24.4756 35.1053C24.4754 35.1053 24.4751 35.1053 24.4749 35.1053L24.4743 34.9706C24.3079 34.9734 24.1427 34.9421 23.9888 34.8788C23.8349 34.8154 23.6956 34.7213 23.5795 34.6021L14.9729 17.195ZM14.9729 17.195C14.3628 17.7422 13.8705 18.408 13.5263 19.1518C13.1821 19.8957 12.9931 20.7018 12.971 21.5212C12.9488 22.3405 13.0939 23.1557 13.3974 23.917C13.7008 24.6784 14.1564 25.3699 14.7361 25.9493L23.483 34.6962C23.4832 34.6964 23.4834 34.6966 23.4836 34.6968L14.9729 17.195ZM26.402 18.3499C26.3829 18.3467 26.3639 18.3437 26.345 18.3409L26.3851 18.301C26.3905 18.3158 26.3962 18.3321 26.402 18.3499ZM26.4752 18.2115C26.4751 18.2117 26.4749 18.2118 26.4747 18.212L26.4752 18.2115ZM24.5682 29.4663L24.7539 26.1385L24.6849 30.6791C24.6746 30.5093 24.6642 30.3499 24.6539 30.2062C24.6386 29.9913 24.6232 29.8098 24.6081 29.6812C24.6006 29.6175 24.5927 29.5632 24.5842 29.5233C24.5804 29.5056 24.5754 29.485 24.5682 29.4663Z" fill="black" stroke="black" stroke-width="0.269498"/>
<defs>
<filter id="filter0_d_400_4063" x="0.127517" y="0.127517" width="48.745" height="48.745" filterUnits="userSpaceOnUse" color-interpolation-filters="sRGB">
<feFlood flood-opacity="0" result="BackgroundImageFix"/>
<feColorMatrix in="SourceAlpha" type="matrix" values="0 0 0 0 0 0 0 0 0 0 0 0 0 0 0 0 0 0 127 0" result="hardAlpha"/>
<feOffset/>
<feGaussianBlur stdDeviation="0.936242"/>
<feComposite in2="hardAlpha" operator="out"/>
<feColorMatrix type="matrix" values="0 0 0 0 0.7625 0 0 0 0 0.7625 0 0 0 0 0.7625 0 0 0 1 0"/>
<feBlend mode="normal" in2="BackgroundImageFix" result="effect1_dropShadow_400_4063"/>
<feBlend mode="normal" in="SourceGraphic" in2="effect1_dropShadow_400_4063" result="shape"/>
</filter>
</defs>
</svg>
