<svg width="18" height="18" viewBox="0 0 18 18" fill="none" xmlns="http://www.w3.org/2000/svg">
<g clip-path="url(#clip0_512_5777)">
<path d="M2.55954 5.40913C3.22502 4.08397 4.24592 2.97 5.50814 2.19171C6.77035 1.41342 8.22413 1.00149 9.70701 1.00195C11.8626 1.00195 13.6735 1.79461 15.058 3.08557L12.7648 5.37954C11.9354 4.58689 10.8812 4.18296 9.70701 4.18296C7.6234 4.18296 5.85972 5.5907 5.23184 7.48075C5.07187 7.96066 4.98069 8.47256 4.98069 9.00047C4.98069 9.52837 5.07187 10.0403 5.23184 10.5202C5.86052 12.411 7.6234 13.818 9.70701 13.818C10.7828 13.818 11.6986 13.534 12.4153 13.0541C12.8308 12.7806 13.1865 12.4256 13.4609 12.0107C13.7353 11.5958 13.9227 11.1296 14.0118 10.6402H9.70701V7.54634H17.24C17.3344 8.06944 17.3856 8.61494 17.3856 9.18203C17.3856 11.6184 16.5137 13.6692 15.0004 15.0609C13.6775 16.2831 11.8666 16.999 9.70701 16.999C8.65651 16.9994 7.61623 16.7928 6.64561 16.391C5.675 15.9892 4.79308 15.4 4.05027 14.6572C3.30745 13.9144 2.7183 13.0325 2.31649 12.0619C1.91468 11.0912 1.70808 10.051 1.7085 9.00047C1.7085 7.70951 2.01724 6.48893 2.55954 5.40913Z" fill="black"/>
</g>
<defs>
<clipPath id="clip0_512_5777">
<rect width="17.5" height="17.5" fill="white" transform="translate(0.25 0.25)"/>
</clipPath>
</defs>
</svg>
