<svg width="15" height="15" viewBox="0 0 15 15" fill="none" xmlns="http://www.w3.org/2000/svg">
<path d="M14.5959 7.80039C14.5959 7.92222 14.5475 8.03907 14.4613 8.12522C14.3752 8.21137 14.2584 8.25977 14.1365 8.25977H7.8584V14.5379C7.8584 14.6597 7.81 14.7766 7.72385 14.8627C7.6377 14.9489 7.52086 14.9973 7.39902 14.9973C7.27719 14.9973 7.16035 14.9489 7.0742 14.8627C6.98805 14.7766 6.93965 14.6597 6.93965 14.5379V8.25977H0.661523C0.53969 8.25977 0.422846 8.21137 0.336696 8.12522C0.250547 8.03907 0.202148 7.92222 0.202148 7.80039C0.202148 7.67856 0.250547 7.56171 0.336696 7.47556C0.422846 7.38941 0.53969 7.34101 0.661523 7.34101H6.93965V1.06289C6.93965 0.941057 6.98805 0.824213 7.0742 0.738063C7.16035 0.651914 7.27719 0.603516 7.39902 0.603516C7.52086 0.603516 7.6377 0.651914 7.72385 0.738063C7.81 0.824213 7.8584 0.941057 7.8584 1.06289V7.34101H14.1365C14.2584 7.34101 14.3752 7.38941 14.4613 7.47556C14.5475 7.56171 14.5959 7.67856 14.5959 7.80039Z" fill="#504E21"/>
</svg>
