<svg width="20" height="20" viewBox="0 0 20 20" fill="none" xmlns="http://www.w3.org/2000/svg">
<path d="M10 5.41667C9.0935 5.41667 8.20736 5.68547 7.45364 6.1891C6.69991 6.69272 6.11245 7.40854 5.76555 8.24603C5.41865 9.08353 5.32789 10.0051 5.50473 10.8942C5.68158 11.7832 6.1181 12.5999 6.75909 13.2409C7.40008 13.8819 8.21676 14.3184 9.10584 14.4953C9.99492 14.6721 10.9165 14.5813 11.754 14.2344C12.5915 13.8875 13.3073 13.3001 13.8109 12.5464C14.3145 11.7926 14.5833 10.9065 14.5833 10C14.5833 8.78442 14.1004 7.61864 13.2409 6.75909C12.3814 5.89955 11.2156 5.41667 10 5.41667ZM10 13.75C9.25832 13.75 8.5333 13.5301 7.91661 13.118C7.29993 12.706 6.81928 12.1203 6.53545 11.4351C6.25162 10.7498 6.17736 9.99584 6.32205 9.26841C6.46675 8.54098 6.8239 7.8728 7.34835 7.34835C7.8728 6.8239 8.54098 6.46675 9.26841 6.32205C9.99584 6.17736 10.7498 6.25162 11.4351 6.53545C12.1203 6.81928 12.706 7.29993 13.118 7.91661C13.5301 8.5333 13.75 9.25832 13.75 10C13.75 10.9946 13.3549 11.9484 12.6516 12.6516C11.9484 13.3549 10.9946 13.75 10 13.75ZM14.5833 0H5.41667C3.98008 0 2.60233 0.570683 1.5865 1.5865C0.570683 2.60233 0 3.98008 0 5.41667V14.5833C0 15.2947 0.140106 15.999 0.412319 16.6562C0.684532 17.3134 1.08352 17.9105 1.5865 18.4135C2.60233 19.4293 3.98008 20 5.41667 20H14.5833C15.2947 20 15.999 19.8599 16.6562 19.5877C17.3134 19.3155 17.9105 18.9165 18.4135 18.4135C18.9165 17.9105 19.3155 17.3134 19.5877 16.6562C19.8599 15.999 20 15.2947 20 14.5833V5.41667C20 4.70534 19.8599 4.00098 19.5877 3.3438C19.3155 2.68662 18.9165 2.08949 18.4135 1.5865C17.9105 1.08352 17.3134 0.684532 16.6562 0.412319C15.999 0.140106 15.2947 0 14.5833 0ZM19.1667 14.5833C19.1667 15.7989 18.6838 16.9647 17.8242 17.8242C16.9647 18.6838 15.7989 19.1667 14.5833 19.1667H5.41667C4.20109 19.1667 3.0353 18.6838 2.17576 17.8242C1.31622 16.9647 0.833333 15.7989 0.833333 14.5833V5.41667C0.833333 4.20109 1.31622 3.0353 2.17576 2.17576C3.0353 1.31622 4.20109 0.833333 5.41667 0.833333H14.5833C15.7989 0.833333 16.9647 1.31622 17.8242 2.17576C18.6838 3.0353 19.1667 4.20109 19.1667 5.41667V14.5833ZM16.25 4.58333C16.25 4.74815 16.2011 4.90927 16.1096 5.04631C16.018 5.18335 15.8878 5.29016 15.7356 5.35323C15.5833 5.41631 15.4157 5.43281 15.2541 5.40065C15.0924 5.3685 14.944 5.28913 14.8274 5.17259C14.7109 5.05605 14.6315 4.90756 14.5993 4.74591C14.5672 4.58426 14.5837 4.4167 14.6468 4.26443C14.7098 4.11216 14.8166 3.98201 14.9537 3.89044C15.0907 3.79887 15.2518 3.75 15.4167 3.75C15.6377 3.75 15.8496 3.8378 16.0059 3.99408C16.1622 4.15036 16.25 4.36232 16.25 4.58333Z" fill="black"/>
</svg>
