<svg width="30" height="30" viewBox="0 0 30 30" fill="none" xmlns="http://www.w3.org/2000/svg">
<g clip-path="url(#clip0_6636_1481)">
<path d="M11.5157 0.988176L11.5159 0.988093C11.8152 0.814991 12.1549 0.723848 12.5007 0.723848C12.8466 0.723848 13.1863 0.814991 13.4856 0.988093L13.4858 0.988176L23.7975 6.94024C23.7976 6.94031 23.7977 6.94038 23.7979 6.94044C23.9155 7.00902 24.0231 7.08549 24.1193 7.17175L24.162 7.20998L24.2179 7.22225C24.3157 7.24371 24.408 7.28533 24.4888 7.34446C24.5696 7.40359 24.6372 7.47893 24.6872 7.56566L24.8756 7.45695L24.6872 7.56566C24.7373 7.65239 24.7687 7.74861 24.7795 7.84817C24.7902 7.94772 24.7801 8.04843 24.7497 8.14385L24.7326 8.19776L24.7439 8.25319C24.7697 8.38013 24.7832 8.51185 24.7832 8.6473V12.8123C24.7832 13.0033 24.7074 13.1864 24.5724 13.3214C24.4373 13.4564 24.2542 13.5323 24.0632 13.5323C23.8723 13.5323 23.6892 13.4564 23.5541 13.3214C23.4191 13.1864 23.3432 13.0033 23.3432 12.8123V9.5498V9.1731L23.017 9.36144L13.3295 14.9539L13.2207 15.0167V15.1423V27.9498V27.9499C13.2208 28.0764 13.1876 28.2006 13.1245 28.3101C13.0613 28.4196 12.9704 28.5106 12.8609 28.5738C12.7515 28.6371 12.6273 28.6704 12.5009 28.6704C12.3744 28.6704 12.2502 28.6372 12.1407 28.5739L1.20325 22.2589C0.903858 22.0861 0.655227 21.8375 0.482329 21.5381C0.309442 21.2388 0.218365 20.8992 0.218246 20.5536C0.218246 20.5535 0.218246 20.5535 0.218246 20.5535V8.64605C0.218246 8.51197 0.231762 8.38013 0.2577 8.25157L0.268881 8.19615L0.251659 8.1423C0.221154 8.04692 0.210918 7.94621 0.221605 7.84665C0.232293 7.74708 0.263669 7.65084 0.313722 7.56411C0.363775 7.47737 0.431401 7.40205 0.512262 7.34298C0.593124 7.28391 0.685438 7.24238 0.783284 7.22107L0.838769 7.20899L0.881265 7.17132C0.979438 7.0843 1.0874 7.00767 1.2034 6.94058L11.5157 0.988176ZM22.297 7.73644L12.7666 2.23445C12.7664 2.23435 12.7663 2.23425 12.7661 2.23415C12.6855 2.18725 12.594 2.16255 12.5007 2.16255C12.4075 2.16255 12.316 2.18725 12.2354 2.23413C12.2352 2.23424 12.2351 2.23434 12.2349 2.23445L2.7045 7.73644L2.37818 7.92483L2.70452 8.11318L12.2832 13.6416V13.894L12.6095 13.7057L22.297 8.11317L22.6233 7.92481L22.297 7.73644ZM1.98449 9.35894L1.65825 9.1706L1.92358 21.0096C1.92375 21.0097 1.92392 21.0098 1.92409 21.0099L11.4545 26.5119L11.7807 26.7003V26.3236V15.1398V15.0142L11.672 14.9514L1.98449 9.35894Z" fill="black" stroke="#FDFDFD" stroke-width="0.435"/>
<path d="M20.6236 21.7157L20.2202 22.0922H20.772H29.0632C29.2542 22.0922 29.4373 22.1681 29.5723 22.3031C29.7074 22.4381 29.7832 22.6212 29.7832 22.8122C29.7832 23.0032 29.7074 23.1863 29.5723 23.3213C29.4373 23.4563 29.2542 23.5322 29.0632 23.5322H20.772H20.2202L20.6236 23.9087L24.2423 27.2862L24.2423 27.2862L24.2438 27.2876C24.3139 27.3518 24.3706 27.4294 24.4106 27.5157C24.4506 27.602 24.4731 27.6954 24.4768 27.7905C24.4805 27.8855 24.4653 27.9804 24.4321 28.0695C24.3989 28.1587 24.3484 28.2404 24.2834 28.3099C24.2185 28.3794 24.1404 28.4354 24.0537 28.4745L24.1432 28.6727L24.0537 28.4745C23.967 28.5137 23.8734 28.5353 23.7783 28.5381C23.6832 28.5408 23.5885 28.5247 23.4997 28.4907C23.4108 28.4566 23.3296 28.4053 23.2607 28.3397L23.2591 28.3382L17.903 23.3383C17.9029 23.3383 17.9029 23.3382 17.9029 23.3382C17.8308 23.2709 17.7734 23.1894 17.7341 23.099C17.6948 23.0085 17.6745 22.9109 17.6745 22.8122C17.6745 22.7135 17.6948 22.6159 17.7341 22.5254C17.7734 22.435 17.8308 22.3535 17.9029 22.2862C17.9029 22.2862 17.9029 22.2861 17.903 22.2861L23.2584 17.2869C23.3982 17.1591 23.5827 17.0916 23.772 17.0989C23.9616 17.1063 24.1407 17.1882 24.2702 17.3268C24.3998 17.4655 24.4694 17.6497 24.4638 17.8393C24.4583 18.0287 24.3784 18.2082 24.2414 18.339L20.6236 21.7157Z" fill="black" stroke="#FDFDFD" stroke-width="0.435"/>
</g>
<defs>
<clipPath id="clip0_6636_1481">
<rect width="30" height="30" fill="white"/>
</clipPath>
</defs>
</svg>
