<svg width="45" height="45" viewBox="0 0 45 45" fill="none" xmlns="http://www.w3.org/2000/svg">
<path d="M19.75 12C14.9175 12 11 15.9175 11 20.75C11 25.5825 14.9175 29.5 19.75 29.5C21.8013 29.5032 23.7879 28.7826 25.36 27.465L32.1663 34.2712C32.2388 34.3438 32.3249 34.4014 32.4197 34.4406C32.5145 34.4799 32.6161 34.5001 32.7188 34.5001C32.8214 34.5001 32.923 34.4799 33.0178 34.4406C33.1126 34.4014 33.1987 34.3438 33.2712 34.2712C33.3438 34.1987 33.4014 34.1126 33.4406 34.0178C33.4799 33.923 33.5001 33.8214 33.5001 33.7188C33.5001 33.6161 33.4799 33.5145 33.4406 33.4197C33.4014 33.3249 33.3438 33.2388 33.2712 33.1663L26.465 26.36C27.7824 24.7878 28.503 22.8012 28.5 20.75C28.5 15.9175 24.5825 12 19.75 12ZM12.5625 20.75C12.5625 16.7806 15.7806 13.5625 19.75 13.5625C23.7194 13.5625 26.9375 16.7806 26.9375 20.75C26.9375 24.7194 23.7194 27.9375 19.75 27.9375C15.7806 27.9375 12.5625 24.7194 12.5625 20.75Z" fill="#232221"/>
<path d="M33.1927 12.1012C30.1461 13.096 26.1058 11.0476 25.1039 8.00331L25.1004 7.99256C25.101 7.99421 25.1015 7.99614 25.102 7.9978C25.1014 7.99591 25.1007 7.99429 25.1001 7.9924L25.1036 8.00304C26.0913 11.0523 24.0388 15.0903 20.9922 16.0851C24.0424 15.0891 28.0886 17.1433 29.0847 20.1935C28.0886 17.1433 30.1428 13.097 33.193 12.101L33.1927 12.1012Z" fill="url(#paint0_linear_400_3670)"/>
<path d="M38.1854 23.2099C36.161 22.6715 34.6743 20.1109 35.208 18.0853L35.2099 18.0781C35.2096 18.0792 35.2092 18.0805 35.2089 18.0816C35.2092 18.0803 35.2094 18.0792 35.2098 18.0779L35.2079 18.085C34.6647 20.1084 32.1027 21.5923 30.0782 21.054C32.1051 21.5929 33.5929 24.1588 33.054 26.1857C33.5929 24.1588 36.1588 22.6709 38.1857 23.2099L38.1854 23.2099Z" fill="url(#paint1_linear_400_3670)"/>
<defs>
<linearGradient id="paint0_linear_400_3670" x1="16.8428" y1="10.6888" x2="33.6456" y2="8.12226" gradientUnits="userSpaceOnUse">
<stop offset="0.0389507" stop-color="#FFF0BF"/>
<stop offset="0.289254" stop-color="#EFC990"/>
<stop offset="0.512668" stop-color="#FDD292"/>
<stop offset="0.836534" stop-color="#F0C749" stop-opacity="0.42"/>
<stop offset="1" stop-color="#D4AF37"/>
</linearGradient>
<linearGradient id="paint1_linear_400_3670" x1="29.7228" y1="16.6188" x2="39.8493" y2="21.1893" gradientUnits="userSpaceOnUse">
<stop offset="0.0389507" stop-color="#FFF0BF"/>
<stop offset="0.289254" stop-color="#EFC990"/>
<stop offset="0.512668" stop-color="#FDD292"/>
<stop offset="0.836534" stop-color="#F0C749" stop-opacity="0.42"/>
<stop offset="1" stop-color="#D4AF37"/>
</linearGradient>
</defs>
</svg>