<svg width="20" height="20" viewBox="0 0 20 20" fill="none" xmlns="http://www.w3.org/2000/svg">
<path d="M19.6 5.49097C18.2209 5.49097 16.8982 4.95378 15.923 3.99758C14.9479 3.04138 14.4 1.74449 14.4 0.392212C14.4 0.288191 14.3579 0.188431 14.2828 0.114876C14.2078 0.0413223 14.1061 0 14 0H10C9.89391 0 9.79217 0.0413223 9.71716 0.114876C9.64214 0.188431 9.6 0.288191 9.6 0.392212V12.943C9.5996 13.364 9.48403 13.7772 9.26535 14.1394C9.04667 14.5017 8.73288 14.7998 8.35669 15.0027C7.98051 15.2056 7.55571 15.3058 7.12657 15.293C6.69744 15.2801 6.27968 15.1546 5.91686 14.9295C5.55404 14.7044 5.25943 14.388 5.06376 14.0133C4.86808 13.6386 4.7785 13.2193 4.80436 12.7991C4.83021 12.3789 4.97055 11.9731 5.21075 11.6242C5.45095 11.2753 5.78221 10.9959 6.17 10.8153C6.23772 10.7828 6.29502 10.7327 6.33559 10.6705C6.37617 10.6082 6.39845 10.5361 6.4 10.4623V6.38326C6.40091 6.32543 6.38877 6.26812 6.36444 6.21544C6.34012 6.16275 6.30421 6.11599 6.25929 6.07851C6.21438 6.04103 6.16156 6.01375 6.10463 5.99863C6.04771 5.98351 5.98807 5.98092 5.93 5.99104C4.58189 6.22792 3.33065 6.8369 2.3231 7.74652C1.31555 8.65614 0.593488 9.82867 0.241644 11.1265C-0.110199 12.4244 -0.0772287 13.7937 0.336688 15.0738C0.750604 16.3539 1.52829 17.4917 2.5785 18.3537C3.62871 19.2157 4.90787 19.7661 6.26587 19.9403C7.62388 20.1146 9.00439 19.9054 10.2454 19.3374C11.4865 18.7693 12.5365 17.866 13.2724 16.7334C14.0083 15.6008 14.3995 14.2859 14.4 12.943V8.76595C15.9643 9.70697 17.7648 10.2026 19.6 10.1975C19.7061 10.1975 19.8078 10.1562 19.8828 10.0826C19.9579 10.0091 20 9.90933 20 9.80531V5.88319C20 5.77916 19.9579 5.6794 19.8828 5.60585C19.8078 5.5323 19.7061 5.49097 19.6 5.49097ZM19.2 9.40329C17.4094 9.33709 15.6793 8.75002 14.23 7.71678C14.1708 7.67595 14.1014 7.65165 14.0291 7.64647C13.9569 7.64129 13.8847 7.65543 13.82 7.68736C13.7534 7.72025 13.6976 7.77073 13.6587 7.83311C13.6198 7.89548 13.5995 7.96726 13.6 8.04035V12.943C13.5994 14.1166 13.2632 15.2665 12.6295 16.2621C11.9959 17.2577 11.0902 18.0592 10.0154 18.5754C8.94053 19.0917 7.73958 19.3021 6.54891 19.1827C5.35824 19.0633 4.22557 18.6189 3.27954 17.9C2.33351 17.1811 1.61203 16.2165 1.19703 15.1157C0.782034 14.015 0.690154 12.8221 0.931824 11.6727C1.17349 10.5233 1.73903 9.46341 2.56421 8.61334C3.38938 7.76326 4.44113 7.15711 5.6 6.86372V10.2269C5.11349 10.5024 4.7095 10.8985 4.42864 11.3756C4.14778 11.8526 3.99994 12.3937 4 12.9446C4.00006 13.4954 4.148 14.0365 4.42896 14.5135C4.70992 14.9905 5.11399 15.3866 5.60055 15.6619C6.08712 15.9372 6.63903 16.0821 7.2008 16.082C7.76257 16.0818 8.31441 15.9367 8.80083 15.6611C9.28726 15.3856 9.69113 14.9893 9.97184 14.5122C10.2526 14.035 10.4002 13.4938 10.4 12.943V0.784425H13.61C13.7103 2.20568 14.3315 3.54341 15.3589 4.55079C16.3862 5.55817 17.7505 6.16723 19.2 6.26559V9.40329Z" fill="black"/>
</svg>
