<svg width="49" height="49" viewBox="0 0 49 49" fill="none" xmlns="http://www.w3.org/2000/svg">
  <g filter="url(#filter0_d_400_3107)">
    <rect x="2" y="2" width="45" height="45" rx="6.24161" fill="#FDFDFD"/>
    <rect x="2.31208" y="2.31208" width="44.3758" height="44.3758" rx="5.92953" stroke="#8A8328" stroke-width="0.624161"/>
  </g>
  <svg x="10" y="10" width="30" height="30" viewBox="0 0 30 30" fill="none" xmlns="http://www.w3.org/2000/svg">
    <path d="M26.9766 24.9607C25.1628 21.8319 22.198 19.5358 18.7149 18.5623C20.3585 17.7275 21.673 16.3634 22.4464 14.69C23.2198 13.0166 23.407 11.1314 22.9778 9.33862C22.5486 7.54582 21.528 5.94984 20.0806 4.8081C18.6333 3.66635 16.8436 3.04541 15.0001 3.04541C13.1566 3.04541 11.3669 3.66635 9.91953 4.8081C8.47219 5.94984 7.45161 7.54582 7.0224 9.33862C6.59319 11.1314 6.78037 13.0166 7.55375 14.69C8.32714 16.3634 9.64164 17.7275 11.2852 18.5623C7.80217 19.5358 4.83741 21.8319 3.02352 24.9607C2.97571 25.0403 2.94442 25.1287 2.93151 25.2207C2.91861 25.3127 2.92436 25.4063 2.94842 25.4959C2.97248 25.5856 3.01436 25.6695 3.07156 25.7427C3.12876 25.8158 3.2001 25.8767 3.28134 25.9217C3.36135 25.9679 3.44968 25.9979 3.5413 26.0099C3.63291 26.022 3.726 26.0159 3.81524 25.9919C3.90449 25.968 3.98814 25.9267 4.06141 25.8704C4.13468 25.8141 4.19614 25.7439 4.24227 25.6639C5.3325 23.7754 6.90062 22.2072 8.78902 21.117C10.6774 20.0267 12.8195 19.4527 15.0001 19.4527C17.1806 19.4527 19.3228 20.0267 21.2112 21.117C23.0996 22.2072 24.6677 23.7754 25.7579 25.6639C25.8196 25.7708 25.9085 25.8596 26.0155 25.9213C26.1224 25.9831 26.2438 26.0155 26.3673 26.0154C26.4904 26.0135 26.6111 25.9813 26.7188 25.9217C26.8001 25.8767 26.8714 25.8158 26.9286 25.7427C26.9858 25.6695 27.0277 25.5856 27.0518 25.4959C27.0758 25.4063 27.0816 25.3127 27.0687 25.2207C27.0558 25.1287 27.0245 25.0403 26.9766 24.9607ZM8.20321 11.2498C8.20321 9.90551 8.60184 8.5914 9.34869 7.47366C10.0955 6.35592 11.1571 5.48475 12.399 4.97031C13.641 4.45587 15.0076 4.32127 16.3261 4.58353C17.6446 4.84579 18.8556 5.49313 19.8062 6.44369C20.7568 7.39425 21.4041 8.60533 21.6664 9.9238C21.9286 11.2423 21.794 12.6089 21.2796 13.8509C20.7651 15.0928 19.894 16.1543 18.7762 16.9012C17.6585 17.648 16.3444 18.0467 15.0001 18.0467C13.1974 18.0467 11.4686 17.3306 10.194 16.0559C8.91931 14.7813 8.20321 13.0524 8.20321 11.2498Z" fill="#232221"/>
  </svg>
</svg>

